<?xml version="1.0" encoding="UTF-8" standalone="no"?>
<svg xmlns="http://www.w3.org/2000/svg" width="210mm" height="935.102" viewBox="0 0 595.276 701.326"><path d="M103.98 28.238c15.042-4.508 28.781-12.488 41.727-21.148 13.507 8.67 27.49 17.215 43.145 21.483 16.555 3.828 33.66-.806 48.945-7.165C253.315 36.198 269.214 50.6 284.7 65.42c-5.039 7.907-9.315 16.379-11.93 25.384a80.9 80.9 0 0 0-2.318 25.802c2.985 26.252 8.394 52.148 12.004 78.306 1.609 12.132 2.106 24.443 1.037 36.648-1.302 9.047-4.191 17.979-9.336 25.645-7.59 11.421-18.63 20.102-30.072 27.539-31.1 19.61-67.247 29.65-98.41 49.167-30.75-19.58-66.686-29.369-97.53-48.79-11.126-7.197-21.965-15.396-29.597-26.315-7.96-11.202-11.379-25.123-11.04-38.688.138-4.874-.265-9.8.487-14.642 3.027-28.773 9.368-57.106 12.829-85.837.423-8.356.794-16.88-1.133-25.112-2.043-9.507-6.224-18.46-11.357-26.712-.392-.878-1.535-1.945-.784-2.939 4.71-5.103 10.215-9.423 15.19-14.255 10.14-9.915 20.895-19.182 30.919-29.212 15.73 6.401 33.385 11.317 50.322 6.83" style="fill:#fff;stroke:none;stroke-width:.911332;stroke-linecap:round;stroke-linejoin:round" transform="translate(-15.665 -15.215)scale(2.14591)"/><path fill="#951a42" d="M213.24 58.948c30.493-9.249 58.346-25.622 84.59-43.39 27.383 17.79 55.73 35.322 87.468 44.077 33.562 7.854 68.24-1.653 99.227-14.7 31.46 30.344 63.69 59.893 95.085 90.3-10.214 16.223-18.884 33.605-24.184 52.082-4.378 17.274-5.944 35.171-4.7 52.94 6.052 53.861 17.018 106.994 24.335 160.663 3.262 24.893 4.27 50.15 2.103 75.193-2.64 18.562-8.498 36.888-18.927 52.618-15.386 23.433-37.768 41.244-60.965 56.502-63.047 40.236-136.33 60.836-199.505 100.879-62.34-40.171-135.193-60.257-197.725-100.107-22.553-14.764-44.527-31.588-60-53.99-16.137-22.984-23.068-51.546-22.381-79.378.279-10-.537-20.107.987-30.043 6.137-59.034 18.991-117.167 26.008-176.115.859-17.146 1.61-34.635-2.296-51.523-4.141-19.506-12.618-37.875-23.025-54.807-.794-1.802-3.112-3.991-1.588-6.03 9.549-10.472 20.708-19.334 30.793-29.248 20.558-20.344 42.36-39.356 62.683-59.936 31.888 13.133 67.682 23.22 102.016 14.013m3.584 8.455c-34.464 10.107-71.094 1.18-103.476-11.931-28.047 27.575-57.103 54.077-85.536 81.244 13.712 22.274 23.927 47.253 25.987 73.54 3.09 26.867-2.36 53.605-6.051 80.129-6.481 43.519-15.687 86.716-19.614 130.557-1.953 17.553-3.37 35.321-.172 52.854 2.919 36.201 26.009 67.317 54.378 88.497 23.884 18.82 50.836 33.176 78.11 46.373l.773-.43c10.28 5.945 21.416 10.237 32.296 14.958-2.403-9.163-5.665-18.09-8.283-27.189-5.751-21.91-10.236-44.141-13.133-66.609-5.515-38.798-4.442-78.154-3.348-117.231 5.558-68.54 20.73-137.08 51.438-199.012-7.597 3.541-14.936 7.575-21.953 12.125-1.523-2.254-3.047-4.485-4.57-6.717-.73 4.12.278 9.55-4.035 12.017-9.528 6.738-19.098 13.52-27.596 21.588a537 537 0 0 1-3.477-8.069c-1.223 15.386-14.7 24.25-23.304 35.515-9.743 11.588-16.953 24.936-23.262 38.584-.386-16.932 1.159-34.035 4.785-50.58 5.28-22.94 19.228-43.09 36.974-58.218-4.184-2.167-2.424-6.652-2.403-10.322a397 397 0 0 1-6.545 10.3c-8.348.494-16.566 2.125-24.57 4.485-.15-1.802-.473-5.407-.623-7.21-3.841 4.55-6.888 10.365-12.811 12.49-11.652 5.128-22.318 12.06-33.133 18.669 3.326-14.592 12.425-27.318 23.476-37.146 20.108-17.832 46.803-27.146 73.476-28.133-3.197-2.403-6.802-4.871-4.227-9.335-2.49 1.395-5.236 4.164-8.24 2.125-7.018-2.661-14.357-4.185-21.696-5.558a558 558 0 0 1 2.103-5.386c-10.3 6.438-22.703 2.704-34.034 3.82-13.433 1.738-27.253 1.48-40.15 6.137 23.82-22.704 55.73-40 89.442-38.54 25.15.6 48.412 13.433 66.351 30.407a358 358 0 0 0-6.695-14.592c2.36-.472 4.743-.923 7.103-1.374-9.893.3-15.407-8.605-18.755-16.652-9.442-4.335-16.695-12.189-26.094-16.674-6.33-4.077-14.078-5.236-20.258-9.485 17.725-.794 35.815 1.116 52.532 7.296 16.18 5.837 28.991 18.305 37.811 32.811 7.382-10.6 16.738-20.107 28.305-26.051 15.665-8.455 35.772-7.897 50.986 1.352-10.987 2.94-21.523 7.725-30.88 14.206-4.87 3.24-8.862 8.39-15.17 8.67.922.45 2.789 1.351 3.712 1.802-2.554 4.614-4.636 9.442-6.481 14.378 13.605-1.438 26.867-5.644 40.686-5.13 24.957-.965 53.562 4.83 69.356 25.966-6.373-2.532-13.09-4.42-20.021-4.227-8.37-.215-17.554 2.403-25.107-2.597.923 1.889 1.802 3.777 2.704 5.666-8.498.643-16.502 3.69-24.786 5.321-3.133-1.18-5.965-3.004-8.862-4.656l4.442 6.051c-3.841 1.545-7.683 3.198-11.223 5.386 26.738 7.962 53.11 24.657 63.669 51.631 7.94 17.918 5.6 37.811 5.3 56.845-4.399-7.081-8.004-14.785-14.055-20.622-6.696-6.695-13.391-13.82-16.545-22.94l-.43-6.845c-1.588 1.974-3.111 3.991-4.678 5.965-7.446-8.175-16.244-14.914-25.107-21.459-.75-4.098-1.46-8.219-2.275-12.296-.75 3.047-1.416 6.116-2.103 9.163-6.33-3.455-12.617-7.038-19.141-10.15-.43-1.051-1.266-3.197-1.695-4.249-2.597.537-5.193 1.03-7.79 1.545 15.322 21.545 19.957 49.056 18.927 75-1.931 22.06-6.717 45.193-20.58 63.025 3.305-14.914.859-30.107-1.501-44.957-1.867-12.403-7.94-24.72-4.056-37.403-1.245.58-3.734 1.738-5 2.318-2.06-8.927-6.266-17.21-8.477-26.094 1.18-4.443 3.262-8.584 4.85-12.897-2.897 2.124-5.515 4.57-8.047 7.081-1.91-4.72-3.39-9.785-6.566-13.841-13.176 27.918-20.558 58.304-26.717 88.476-5.773 32.66-10.15 65.772-9.592 98.99-1.116 36.267 1.266 72.683 8.154 108.348 3.026 17.982 7.554 35.686 12.919 53.09 4.313 13.476 9.184 26.78 15.107 39.635 3.283 7.682 6.974 15.171 10.772 22.617 5.43 9.314 10.408 19.013 16.953 27.64 5.644 5.429 13.069 8.626 19.764 12.596 3.82 2.833 7.468-1.738 10.686-3.476 13.67-8.283 28.262-14.893 42.168-22.682 21.287-9.357 42.574-18.841 63.561-28.82 31.266-13.176 61.953-28.262 89.828-47.725 17.125-12.081 33.584-25.708 45.665-43.004 15.601-20.966 22.382-47.596 21.889-73.476-.237-11.33.665-22.768-1.352-33.97-5.773-59.12-19.528-117.167-25.837-176.222-.601-15.708-1.202-31.652 1.867-47.167 3.455-21.867 13.583-41.738 23.82-61.094-28.477-26.867-56.996-53.734-85.386-80.708-32.06 13.069-68.305 21.76-102.49 12.06-29.548-8.755-56.308-24.656-82.016-41.287-25.236 16.802-51.974 32.189-81.115 41.094"/><g fill="#00c0f3"><path d="M216.823 67.403c29.141-8.905 55.88-24.292 81.115-41.094 25.708 16.63 52.468 32.532 82.017 41.287 34.184 9.7 70.429 1.009 102.489-12.06 28.39 26.974 56.91 53.841 85.385 80.708-10.236 19.356-20.364 39.227-23.82 61.094-3.068 15.515-2.467 31.459-1.866 47.167 6.309 59.055 20.064 117.102 25.837 176.222-44.163-3.176-88.305-6.545-132.532-8.798 0-30.794.022-61.588.022-92.381.579-3.477-1.266-6.095-3.82-8.155-.58-.88-1.738-2.618-2.318-3.476-23.862.214-47.746-.193-71.63.214a103 103 0 0 1-5.794 6.438c-.472 31.63-.065 63.261-.193 94.892-23.755.837-47.49-.965-71.223-.322-22.875.73-45.75.88-68.626.816-.558-33.219 3.82-66.33 9.592-98.991 6.159-30.172 13.54-60.558 26.717-88.476 3.175 4.056 4.656 9.12 6.566 13.841 2.532-2.51 5.15-4.957 8.047-7.081-1.588 4.313-3.67 8.454-4.85 12.897 2.21 8.884 6.417 17.167 8.477 26.094 1.266-.58 3.755-1.738 5-2.318-3.884 12.683 2.189 25 4.056 37.403 2.36 14.85 4.806 30.043 1.502 44.957 13.862-17.832 18.648-40.965 20.579-63.025 1.03-25.944-3.605-53.455-18.927-75 2.597-.515 5.193-1.008 7.79-1.545.429 1.052 1.266 3.198 1.695 4.25 6.524 3.11 12.811 6.694 19.141 10.15.687-3.048 1.352-6.117 2.103-9.164.816 4.077 1.524 8.198 2.275 12.296 8.863 6.545 17.661 13.284 25.107 21.46 1.567-1.975 3.09-3.992 4.678-5.966l.43 6.845c3.154 9.12 9.85 16.245 16.545 22.94 6.051 5.837 9.656 13.54 14.055 20.622.3-19.034 2.64-38.927-5.3-56.845-10.558-26.974-36.931-43.67-63.67-51.63 3.541-2.19 7.383-3.842 11.224-5.387l-4.442-6.051c2.897 1.652 5.73 3.476 8.862 4.656 8.284-1.63 16.288-4.678 24.786-5.321-.902-1.889-1.781-3.777-2.704-5.666 7.553 5 16.738 2.382 25.107 2.597 6.931-.193 13.648 1.695 20.021 4.227-15.794-21.137-44.399-26.93-69.356-25.965-13.82-.515-27.081 3.69-40.686 5.129 1.845-4.936 3.927-9.764 6.48-14.378-.922-.45-2.79-1.352-3.712-1.803 6.31-.279 10.3-5.429 15.172-8.67 9.356-6.48 19.892-11.265 30.88-14.205-15.215-9.249-35.322-9.807-50.987-1.352-11.567 5.944-20.923 15.45-28.305 26.051-8.82-14.506-21.63-26.974-37.81-32.81-16.718-6.18-34.808-8.09-52.533-7.297 6.18 4.25 13.927 5.408 20.258 9.485 9.399 4.485 16.652 12.34 26.094 16.674 3.348 8.047 8.862 16.953 18.755 16.652-2.36.45-4.742.902-7.103 1.374a358 358 0 0 1 6.695 14.592c-17.94-16.974-41.201-29.807-66.351-30.408-33.712-1.459-65.622 15.837-89.442 38.54 12.897-4.656 26.717-4.398 40.15-6.136 11.33-1.116 23.734 2.618 34.034-3.82a558 558 0 0 0-2.103 5.386c7.34 1.373 14.678 2.897 21.696 5.558 3.004 2.039 5.75-.73 8.24-2.125-2.575 4.464 1.03 6.932 4.227 9.335-26.673.987-53.368 10.3-73.476 28.133-11.051 9.828-20.15 22.554-23.476 37.146 10.815-6.61 21.48-13.54 33.133-18.67 5.923-2.124 8.97-7.94 12.811-12.489.15 1.803.472 5.408.622 7.21 8.005-2.36 16.223-3.991 24.571-4.485a397 397 0 0 0 6.545-10.3c-.021 3.67-1.781 8.155 2.403 10.322-17.746 15.129-31.695 35.279-36.974 58.218-3.626 16.545-5.171 33.648-4.785 50.58 6.309-13.648 13.52-26.996 23.262-38.584 8.605-11.266 22.081-20.129 23.304-35.515a537 537 0 0 0 3.477 8.069c8.498-8.069 18.068-14.85 27.596-21.588 4.313-2.468 3.305-7.897 4.034-12.017 1.524 2.232 3.048 4.463 4.571 6.717 7.017-4.55 14.356-8.584 21.953-12.125-30.708 61.931-45.88 130.472-51.438 199.012-18.626-.815-37.145 1.738-55.729 2.189-28.326 1.888-56.63 3.755-84.892 6.588 3.927-43.841 13.133-87.038 19.614-130.557 3.69-26.524 9.141-53.262 6.051-80.129-2.06-26.287-12.275-51.266-25.987-73.54 28.433-27.167 57.489-53.67 85.536-81.244 32.382 13.111 69.012 22.038 103.476 11.931m243.067 39.292c-16.094 1.03-31.78 9.978-39.978 23.99-7.94 12.662-9.914 28.95-4.829 43.026 6.33 19.314 25.515 33.22 45.665 34.25 26.31 1.458 51.524-20.644 52.404-47.19 3.197-29.334-23.97-56.673-53.262-54.076"/><path d="M366.414 318.389c6.631-.022 13.262 0 19.893.107-.129 30.558-.022 61.116-.043 91.673-6.61 0-13.197-.043-19.764-.15-.043-30.536.086-61.094-.086-91.63M401.006 318.346c6.631.021 13.283.043 19.936.129-.236 31.05-.043 62.102-.107 93.154-6.588-.3-13.198-.494-19.786-.623-.193-30.88 0-61.76-.043-92.66"/></g><g fill="#fbed00"><path d="M459.89 106.695c29.292-2.597 56.459 24.742 53.262 54.077-.88 26.545-26.095 48.647-52.404 47.188-20.15-1.03-39.334-14.935-45.665-34.249-5.085-14.077-3.111-30.364 4.829-43.025 8.197-14.013 23.884-22.961 39.978-23.991M357.702 308.131c23.884-.407 47.768 0 71.63-.214.58.858 1.738 2.596 2.318 3.476 2.554 2.06 4.399 4.678 3.82 8.155 0 30.793-.022 61.587-.022 92.381-.15 32.124.28 64.249-.172 96.373-.45 2.232-.944 4.463-1.459 6.695-4.463-.73-8.927-1.33-13.39-2.017.107-1.352.3-4.056.386-5.408.064-31.974 0-63.97.022-95.943.064-31.052-.13-62.103.107-93.154-6.653-.086-13.305-.108-19.936-.13.043 30.902-.15 61.782.043 92.661-1.116 31.48.837 63.026-.515 94.528-.257 3.025-.493 6.073-.923 9.098-4.527-.429-9.055-.858-13.583-1.48.043-1.846.15-5.537.193-7.382.086-31.867 0-63.734.043-95.6.021-30.558-.086-61.116.043-91.674-6.631-.107-13.262-.129-19.893-.107l-1.309.021c.15 58.305-.043 116.609.108 174.935-.258 7.189 1.609 14.978-1.953 21.63-3.992-.622-7.962-1.244-11.932-1.974.065-1.888.215-5.708.3-7.596.194-31.974.022-63.97.087-95.944.128-31.63-.28-63.261.193-94.892a103 103 0 0 0 5.794-6.438"/></g><g fill="#72bf44"><path d="m365.105 318.41 1.31-.021c.17 30.536.042 61.094.085 91.63.086 31.76-.215 63.54.15 95.321 6.524.108 13.047.258 19.571.43-.043 1.845-.15 5.536-.193 7.382-41.652 39.763-82.317 80.557-123.24 121.093l-3.97-.6c-3.798-7.447-7.489-14.936-10.772-22.618 39.163-31.095 76.845-63.992 115.214-96.051 3.562-6.653 1.695-14.442 1.953-21.631-.15-58.326.042-116.63-.108-174.935"/><path d="M220.02 518.302c43.39-8.262 87.468-12.597 131.609-12.897a899 899 0 0 0-.3 7.596c-10.473 3.992-20.086 9.829-30.28 14.442-29.956 13.434-58.218 30.343-88.11 43.949-5.365-17.404-9.893-35.108-12.919-53.09M400.534 505.534c6.76.686 13.52 1.373 20.279 2.038a458 458 0 0 1-.386 5.408c-23.198 45.343-48.176 89.742-72.038 134.742-13.906 7.79-28.498 14.399-42.168 22.682l-3.111-.901c6.073-13.67 16.201-24.936 23.39-37.962 18.734-30.471 37.618-60.858 56.996-90.9 5.3-8.713 11.738-16.76 16.115-26.009.43-3.025.666-6.073.923-9.098M435.276 508.302c37.79 4.077 75.343 10.343 112.167 19.87-12.081 17.297-28.54 30.924-45.665 43.005-27.875 19.463-58.562 34.55-89.828 47.725 1.717-5.193 2.962-10.515 4.013-15.88 5.794-29.399 13.605-58.347 19.12-87.789l-1.266-.236a249 249 0 0 0 1.46-6.695M82.339 562.293c28.647-14.099 58.905-24.764 89.763-32.897 2.897 22.468 7.382 44.7 13.133 66.61-8.176 3.755-16.202 7.789-24.013 12.23l-.772.43c-27.275-13.197-54.227-27.553-78.111-46.373"/></g><g fill="#0072bc"><path d="M211.866 409.955c22.875.064 45.75-.086 68.626-.816 23.734-.643 47.468 1.16 71.223.322-.065 31.974.107 63.97-.086 95.944-44.141.3-88.218 4.635-131.609 12.897-6.888-35.665-9.27-72.081-8.154-108.347M366.5 410.02c6.567.106 13.154.15 19.764.15-.043 31.866.043 63.733-.043 95.6-6.524-.172-13.047-.322-19.57-.43-.366-31.78-.065-63.561-.15-95.32M113.025 414.354c18.584-.45 37.103-3.004 55.73-2.189-1.095 39.077-2.168 78.433 3.347 117.231-30.858 8.133-61.116 18.798-89.763 32.897-28.37-21.18-51.46-52.296-54.378-88.497-3.197-17.533-1.78-35.3.172-52.854 28.262-2.833 56.566-4.7 84.892-6.588M401.05 411.006c6.587.129 13.197.322 19.785.623-.022 31.974.042 63.97-.022 95.943-6.76-.665-13.52-1.352-20.279-2.038 1.352-31.502-.6-63.047.515-94.528M435.448 411.929c44.227 2.253 88.369 5.622 132.532 8.798 2.017 11.202 1.115 22.64 1.352 33.97.493 25.88-6.288 52.51-21.889 73.476-36.824-9.528-74.377-15.794-112.167-19.871.451-32.124.022-64.249.172-96.373"/></g><g fill="#5ea14d"><path d="M321.05 527.443c10.193-4.613 19.806-10.45 30.278-14.442 3.97.73 7.94 1.352 11.932 1.975-38.37 32.06-76.051 64.956-115.214 96.05-5.923-12.853-10.794-26.158-15.107-39.634 29.892-13.606 58.154-30.515 88.11-43.949M386.028 513.152c4.528.622 9.056 1.051 13.583 1.48-4.377 9.25-10.815 17.296-16.115 26.009-19.378 30.042-38.262 60.429-56.996 90.9-7.189 13.026-17.317 24.292-23.39 37.962l3.111.9c-3.218 1.74-6.866 6.31-10.686 3.477-6.695-3.97-14.12-7.167-19.764-12.596-6.545-8.627-11.524-18.326-16.953-27.64l3.97.601c40.923-40.536 81.588-81.33 123.24-121.093M420.427 512.98c4.463.687 8.927 1.287 13.39 2.017l1.266.236c-5.515 29.442-13.326 58.39-19.12 87.79-1.051 5.364-2.296 10.686-4.013 15.879-20.987 9.979-42.274 19.463-63.561 28.82 23.862-45 48.84-89.399 72.038-134.742M161.222 608.237c7.811-4.442 15.837-8.476 24.013-12.232 2.618 9.099 5.88 18.026 8.283 27.189-10.88-4.721-22.017-9.013-32.296-14.957"/></g></svg>